<svg xmlns="http://www.w3.org/2000/svg" viewBox="0 0 32 32">
  <rect width="32" height="32" rx="8" fill="#0d0f14"/>
  <rect width="32" height="32" rx="8" fill="url(#g)"/>
  <defs>
    <linearGradient id="g" x1="0" y1="0" x2="32" y2="32" gradientUnits="userSpaceOnUse">
      <stop offset="0%" stop-color="#4f7cff"/>
      <stop offset="100%" stop-color="#7c5cfc"/>
    </linearGradient>
  </defs>
  <!-- Brain shape -->
  <g fill="none" stroke="#fff" stroke-width="1.6" stroke-linecap="round" stroke-linejoin="round">
    <!-- left hemisphere -->
    <path d="M16 10 C16 10 11 9 10 13 C9 16 10 18 12 19 C10 20 10 23 12 23.5 C13 25 15 25 16 24"/>
    <!-- right hemisphere -->
    <path d="M16 10 C16 10 21 9 22 13 C23 16 22 18 20 19 C22 20 22 23 20 23.5 C19 25 17 25 16 24"/>
    <!-- center line -->
    <line x1="16" y1="10" x2="16" y2="24"/>
    <!-- neural dots -->
    <circle cx="12.5" cy="14.5" r="1" fill="#fff" stroke="none"/>
    <circle cx="19.5" cy="14.5" r="1" fill="#fff" stroke="none"/>
    <circle cx="12" cy="20" r="1" fill="#fff" stroke="none"/>
    <circle cx="20" cy="20" r="1" fill="#fff" stroke="none"/>
    <!-- connections -->
    <line x1="12.5" y1="14.5" x2="16" y2="16" stroke-opacity="0.6" stroke-width="1"/>
    <line x1="19.5" y1="14.5" x2="16" y2="16" stroke-opacity="0.6" stroke-width="1"/>
    <line x1="12" y1="20" x2="16" y2="18.5" stroke-opacity="0.6" stroke-width="1"/>
    <line x1="20" y1="20" x2="16" y2="18.5" stroke-opacity="0.6" stroke-width="1"/>
  </g>
</svg>
